<svg width="179" height="38" viewBox="0 0 179 38" fill="none" xmlns="http://www.w3.org/2000/svg">
<g clip-path="url(#clip0_95_3830)">
<path d="M55.208 29.1583V36.9488L55.0261 37.1354H51.2326L51.0507 36.9488V10.5264L51.2326 10.3398H55.0261L55.208 10.5264V25.2864M56.9728 27.2644L63.932 18.4009L64.1685 18.289H68.5624L68.6716 18.5129L62.0944 27.0684V27.3297L68.6898 37.0141L68.5806 37.2381H63.9866L63.7683 37.1261" fill="#3B3C3E"/>
<path d="M90.5845 31.4262C90.5845 27.8248 93.0771 25.4084 97.7256 25.4084H103.557L103.739 25.2218V24.9046C103.739 22.4788 102.32 21.1726 99.6087 21.1726C97.2071 21.1726 95.8244 22.1989 95.4605 24.1395L95.2603 24.3074H91.4396L91.2577 24.1022C91.8399 20.0903 94.7509 17.8418 99.6542 17.8418C104.83 17.8418 107.851 20.6035 107.851 24.9419V32.919L107.878 33.74V36.9309L107.685 37.1175H105.195L104.43 35.6806L104.212 35.606C102.829 37.0242 100.518 37.4907 98.2715 37.4907C93.3591 37.4907 90.5663 35.2328 90.5663 31.4355L90.5845 31.4262ZM103.802 29.3549V28.9817L103.62 28.7951H98.2351C95.7789 28.7951 94.7418 29.6535 94.7418 31.3142C94.7418 33.1616 96.0882 34.2438 98.7445 34.2438C101.837 34.2438 103.802 32.751 103.802 29.3549Z" fill="#3B3C3E"/>
<path d="M143.401 31.4262C143.401 27.8248 145.894 25.4084 150.542 25.4084H156.373L156.555 25.2218V24.9046C156.555 22.4788 155.136 21.1726 152.425 21.1726C150.024 21.1726 148.641 22.1989 148.277 24.1395L148.077 24.3074H144.256L144.074 24.1022C144.656 20.0903 147.567 17.8418 152.471 17.8418C157.647 17.8418 160.667 20.6035 160.667 24.9419V32.919L160.694 33.74V36.9309L160.502 37.1175H158.011L157.247 35.6806L157.028 35.606C155.646 37.0242 153.335 37.4907 151.088 37.4907C146.176 37.4907 143.383 35.2328 143.383 31.4355L143.401 31.4262ZM156.619 29.3549V28.9817L156.437 28.7951H151.052C148.595 28.7951 147.558 29.6535 147.558 31.3142C147.558 33.1616 148.905 34.2438 151.561 34.2438C154.654 34.2438 156.619 32.751 156.619 29.3549Z" fill="#3B3C3E"/>
<path d="M111.066 36.9482V18.3723L111.248 18.1857H114.623L114.759 18.4469L115.369 19.5665C116.733 18.335 118.507 17.8125 120.399 17.8125C125.212 17.8125 128.05 20.2943 128.05 24.9872V36.9482L127.868 37.1348H124.093L123.911 36.9482V25.7336C123.911 22.9346 122.346 21.3579 119.572 21.3579C116.797 21.3579 115.214 23.1119 115.214 26.0322V34.7183L112.858 37.1348H111.239L111.057 36.9482H111.066Z" fill="#3B3C3E"/>
<path d="M163.826 36.9494V33.9078L163.917 33.6839L173.705 21.7416L173.596 21.5176H164.481L164.299 21.331V18.4014L164.481 18.2148H178.436L178.618 18.4014V21.4057L178.545 21.6296L168.975 33.6092L169.084 33.8332H178.818L179 34.0198L176.712 37.136H164.008L163.826 36.9494Z" fill="#3B3C3E"/>
<path d="M87.7828 18.3311L87.7828 36.907L87.6009 37.0936L84.2259 37.0936L84.0894 36.8324L83.4799 35.7128C82.1154 36.9443 80.3415 37.4668 78.4493 37.4668C73.637 37.4668 70.7987 34.985 70.7987 30.2921L70.7987 18.3311L70.9807 18.1445L74.7559 18.1445L74.9379 18.3311L74.9379 29.5457C74.9379 32.3447 76.5025 33.9214 79.2771 33.9214C82.0517 33.9214 83.6346 32.1674 83.6346 29.2471L83.6346 20.5609L85.9907 18.1445L87.61 18.1445L87.7919 18.3311L87.7828 18.3311Z" fill="#3B3C3E"/>
<path d="M133.138 33.2359V22.1286L132.949 21.9443H129.515L129.418 21.8275V19.6904L135.427 13.4871L135.578 13.3027H137.238L137.428 13.4871V18.5338L137.617 18.7181H141.132L141.322 18.9025V21.7753L141.132 21.9597H137.617L137.428 22.144V32.1759C137.428 33.3665 137.767 33.6891 138.984 33.6891H141.124L141.314 33.8735V37.0689L141.124 37.2533H137.254C134.513 37.2533 133.138 35.9551 133.138 33.2513V33.2359Z" fill="#3B3C3E"/>
</g>
<g clip-path="url(#clip1_95_3830)">
<path d="M15.8594 22.9052L27.5114 8.33008H36.8339L20.5184 28.7326L15.8594 22.9052Z" fill="url(#paint0_linear_95_3830)"/>
<path d="M36.8339 37.4792H27.5114L15.8594 22.9041L20.5184 17.0723L36.8339 37.4792Z" fill="url(#paint1_linear_95_3830)"/>
<path d="M9.3225 37.4801H0L11.652 0H20.979L9.3225 37.4801Z" fill="url(#paint2_linear_95_3830)"/>
<path d="M10.3281 4.26274L11.6516 0H20.9786L17.0394 12.6682L10.3281 4.26274Z" fill="url(#paint3_linear_95_3830)"/>
</g>
<defs>
<linearGradient id="paint0_linear_95_3830" x1="23.0893" y1="19.1803" x2="34.6644" y2="10.9506" gradientUnits="userSpaceOnUse">
<stop stop-color="#004773"/>
<stop offset="0.17" stop-color="#0072B1"/>
<stop offset="1" stop-color="#00B3D4"/>
</linearGradient>
<linearGradient id="paint1_linear_95_3830" x1="31.2627" y1="38.6527" x2="20.0855" y2="19.1845" gradientUnits="userSpaceOnUse">
<stop stop-color="#006E98"/>
<stop offset="1" stop-color="#38C6F4"/>
</linearGradient>
<linearGradient id="paint2_linear_95_3830" x1="20.4782" y1="0.484503" x2="0.544271" y2="37.343" gradientUnits="userSpaceOnUse">
<stop stop-color="#BFD730"/>
<stop offset="0.87" stop-color="#00AC92"/>
</linearGradient>
<linearGradient id="paint3_linear_95_3830" x1="18.4389" y1="-1.14236" x2="12.3954" y2="10.0266" gradientUnits="userSpaceOnUse">
<stop stop-color="#B2CF91"/>
<stop offset="1" stop-color="#B5D334"/>
</linearGradient>
<clipPath id="clip0_95_3830">
<rect width="127.949" height="27.1408" fill="white" transform="translate(51.0508 10.3398)"/>
</clipPath>
<clipPath id="clip1_95_3830">
<rect width="36.8339" height="37.4801" fill="white"/>
</clipPath>
</defs>
</svg>
